<svg width="331" height="169" viewBox="0 0 331 169" fill="none" xmlns="http://www.w3.org/2000/svg">
<path d="M64.368 2.06399C64.368 1.48799 64.608 1.15199 65.088 1.05599C65.568 0.959996 66.048 0.959996 66.528 1.05599C67.008 1.05599 67.44 1.10399 67.824 1.19999C68.208 1.29599 68.64 1.43999 69.12 1.632C69.696 19.776 69.36 35.664 68.112 49.296C66.864 62.832 64.944 74.352 62.352 83.856C59.856 93.36 56.88 100.944 53.424 106.608C49.968 112.176 46.272 116.064 42.336 118.272C38.496 120.48 34.56 121.104 30.528 120.144C26.496 119.184 22.704 116.832 19.152 113.088C16.464 110.304 14.256 106.368 12.528 101.28C10.8 96.192 9.36 90.576 8.208 84.432C7.152 78.192 6.288 71.76 5.616 65.136C5.04 58.416 4.464 52.08 3.888 46.128C3.408 40.176 2.88 34.944 2.304 30.432C1.728 25.824 0.96 22.512 0 20.496C4.992 18.768 9.456 18.096 13.392 18.48C15.12 18.672 16.8 19.104 18.432 19.776C20.064 20.448 21.552 21.456 22.896 22.8C24.336 24.144 25.536 25.968 26.496 28.272C27.552 30.48 28.224 33.216 28.512 36.48C28.992 41.952 29.52 47.616 30.096 53.472C30.768 59.328 31.488 65.04 32.256 70.608C33.12 76.08 34.032 81.36 34.992 86.448C36.048 91.44 37.248 95.856 38.592 99.696C39.744 102.48 41.232 103.728 43.056 103.44C44.88 103.056 46.8 101.328 48.816 98.256C50.832 95.088 52.8 90.624 54.72 84.864C56.736 79.104 58.512 72.192 60.048 64.128C61.584 55.968 62.736 46.752 63.504 36.48C64.368 26.208 64.656 14.976 64.368 2.784V2.06399ZM123.325 76.224C123.037 76.704 122.413 78.144 121.453 80.544C120.493 82.848 119.149 85.584 117.421 88.752C115.789 91.92 113.821 95.28 111.517 98.832C109.309 102.384 106.717 105.648 103.741 108.624C100.861 111.6 97.6448 114.048 94.0928 115.968C90.6368 117.888 86.8448 118.752 82.7168 118.56C78.8768 118.464 75.9968 117.216 74.0768 114.816C72.1568 112.32 70.8608 109.248 70.1888 105.6C69.5168 101.952 69.2767 97.968 69.4688 93.648C69.7568 89.232 70.1408 85.056 70.6208 81.12C71.1008 77.184 71.5328 73.728 71.9168 70.752C72.3968 67.776 72.4928 65.76 72.2048 64.704C76.1408 64.128 79.6448 64.176 82.7168 64.848C83.9648 65.136 85.1648 65.568 86.3168 66.144C87.5648 66.72 88.6208 67.536 89.4848 68.592C90.3488 69.552 90.9728 70.752 91.3568 72.192C91.7408 73.632 91.7888 75.408 91.5008 77.52C90.7328 82.992 90.2048 87.792 89.9168 91.92C89.6288 96.048 89.7248 99.312 90.2048 101.712C90.6848 104.016 91.5968 105.456 92.9408 106.032C94.2848 106.512 96.2048 105.888 98.7008 104.16C101.197 102.336 103.693 99.792 106.189 96.528C108.685 93.264 110.893 90 112.813 86.736C115.117 82.896 117.229 78.864 119.149 74.64L123.325 76.224ZM83.4368 56.352C80.4608 56.352 77.9168 55.296 75.8048 53.184C73.6928 51.072 72.6368 48.528 72.6368 45.552C72.6368 42.48 73.6928 39.936 75.8048 37.92C77.9168 35.808 80.4608 34.752 83.4368 34.752C86.4128 34.752 88.9568 35.808 91.0688 37.92C93.1808 39.936 94.2368 42.48 94.2368 45.552C94.2368 48.528 93.1808 51.072 91.0688 53.184C88.9568 55.296 86.4128 56.352 83.4368 56.352ZM173.674 78.384C169.642 85.968 165.034 92.592 159.85 98.256C154.762 103.92 149.578 108.528 144.298 112.08C139.018 115.632 133.93 118.032 129.034 119.28C124.234 120.432 120.106 120.336 116.65 118.992C113.194 117.552 110.602 114.768 108.874 110.64C107.242 106.512 107.05 100.848 108.298 93.648C109.354 87.216 111.418 82.176 114.49 78.528C117.658 74.88 121.066 72.24 124.714 70.608C128.458 68.976 132.058 68.112 135.514 68.016C139.066 67.92 141.754 68.16 143.578 68.736C145.018 69.216 146.362 70.032 147.61 71.184C148.858 72.24 149.77 73.584 150.346 75.216C151.018 76.848 151.21 78.72 150.922 80.832C150.634 82.944 149.722 85.296 148.186 87.888C147.13 89.616 145.786 91.008 144.154 92.064C142.522 93.12 140.842 93.936 139.114 94.512C137.386 94.992 135.658 95.328 133.93 95.52C132.202 95.616 130.714 95.664 129.466 95.664C128.986 99.984 129.13 103.152 129.898 105.168C130.666 107.184 131.866 108.384 133.498 108.768C135.226 109.056 137.242 108.624 139.546 107.472C141.85 106.32 144.25 104.784 146.746 102.864C149.338 100.848 151.93 98.592 154.522 96.096C157.114 93.504 159.514 90.96 161.722 88.464C163.93 85.872 165.802 83.52 167.338 81.408C168.97 79.2 170.122 77.424 170.794 76.08L173.674 78.384ZM140.986 76.656C140.506 76.656 139.786 76.704 138.826 76.8C137.962 76.896 136.954 77.424 135.802 78.384C134.746 79.248 133.69 80.736 132.634 82.848C131.578 84.96 130.714 88.032 130.042 92.064C132.346 92.256 134.314 92.16 135.946 91.776C137.674 91.296 139.066 90.72 140.122 90.048C141.274 89.28 142.186 88.464 142.858 87.6C143.53 86.736 144.058 85.92 144.442 85.152C144.73 84.672 144.97 83.952 145.162 82.992C145.354 82.032 145.354 81.12 145.162 80.256C145.066 79.296 144.682 78.48 144.01 77.808C143.434 77.04 142.426 76.656 140.986 76.656ZM226.19 75.936C224.942 78.336 223.79 80.592 222.734 82.704C221.774 84.528 220.766 86.4 219.71 88.32C218.75 90.24 217.934 91.728 217.262 92.784C216.686 93.84 216.014 94.992 215.246 96.24C214.574 97.392 213.758 98.544 212.798 99.696C212.318 100.272 211.79 100.848 211.214 101.424C210.734 102 210.158 102.528 209.486 103.008C209.294 103.2 209.102 103.344 208.91 103.44C208.814 103.44 208.67 103.536 208.478 103.728C208.286 103.824 208.094 103.92 207.902 104.016C207.71 104.112 207.518 104.208 207.326 104.304C207.23 104.304 206.99 104.4 206.606 104.592H206.174C206.174 104.688 206.126 104.736 206.03 104.736H205.454H205.31H205.166H205.022H204.59C203.918 104.736 203.342 104.544 202.862 104.16C202.19 103.872 201.71 103.392 201.422 102.72C201.038 102.24 200.798 101.712 200.702 101.136C200.606 100.56 200.462 100.032 200.27 99.552C200.078 98.496 199.982 97.536 199.982 96.672C199.982 95.712 199.982 94.8 199.982 93.936C200.078 92.112 200.174 90.336 200.27 88.608C200.366 86.88 200.51 85.152 200.702 83.424C200.798 82.56 200.846 81.696 200.846 80.832C200.942 79.968 200.99 79.152 200.99 78.384C200.99 77.616 200.99 76.848 200.99 76.08C200.99 75.312 200.942 74.64 200.846 74.064C200.75 73.68 200.51 73.392 200.126 73.2C199.838 73.008 199.454 73.152 198.974 73.632L198.11 74.496C197.726 74.976 197.342 75.552 196.958 76.224C196.67 76.8 196.382 77.376 196.094 77.952C195.71 78.624 195.374 79.296 195.086 79.968C194.798 80.544 194.51 81.168 194.222 81.84C193.742 83.184 193.262 84.48 192.782 85.728C192.302 86.88 191.87 88.08 191.486 89.328C190.718 91.728 190.046 93.936 189.47 95.952C188.894 97.968 188.414 99.648 188.03 100.992C187.838 101.376 187.694 101.856 187.598 102.432C187.502 102.912 187.358 103.392 187.166 103.872C186.974 104.448 186.83 105.072 186.734 105.744C186.062 108.24 185.198 110.256 184.142 111.792C183.182 113.328 182.126 114.48 180.974 115.248C179.822 116.016 178.622 116.544 177.374 116.832C176.222 117.12 175.166 117.264 174.206 117.264C170.75 117.36 168.206 116.304 166.574 114.096C164.942 111.888 163.934 109.008 163.55 105.456C163.262 101.808 163.31 97.728 163.694 93.216C164.174 88.704 164.702 84.192 165.278 79.68C165.95 75.072 166.478 70.752 166.862 66.72C167.246 62.688 167.15 59.376 166.574 56.784C170.798 55.92 174.494 56.016 177.662 57.072C179.006 57.552 180.302 58.272 181.55 59.232C182.894 60.192 183.998 61.536 184.862 63.264C185.822 64.992 186.542 67.104 187.022 69.6C187.502 72.096 187.646 75.12 187.454 78.672V79.392C188.126 78.144 188.99 76.8 190.046 75.36C191.102 73.824 192.206 72.432 193.358 71.184C194.51 69.84 195.71 68.736 196.958 67.872C198.206 67.008 199.454 66.576 200.702 66.576C202.238 66.576 203.342 67.2 204.014 68.448C204.686 69.696 205.118 71.232 205.31 73.056C205.502 74.784 205.502 76.704 205.31 78.816C205.118 80.928 204.926 82.848 204.734 84.576C204.734 85.056 204.686 85.584 204.59 86.16C204.59 86.736 204.542 87.264 204.446 87.744V88.608C204.254 89.568 204.11 90.528 204.014 91.488C204.014 92.352 203.966 93.216 203.87 94.08C203.87 94.848 203.87 95.664 203.87 96.528C203.87 97.296 203.918 98.016 204.014 98.688C204.206 99.456 204.35 99.936 204.446 100.128L204.59 100.272C204.686 100.272 204.734 100.32 204.734 100.416C204.734 100.416 204.782 100.416 204.878 100.416H205.022L205.454 100.272H205.742H205.886C205.886 100.176 205.982 100.128 206.174 100.128C206.27 100.032 206.366 99.984 206.462 99.984C206.558 99.984 206.702 99.936 206.894 99.84C206.99 99.744 207.086 99.696 207.182 99.696C207.278 99.6 207.422 99.456 207.614 99.264C208.094 98.976 208.526 98.64 208.91 98.256C209.294 97.776 209.726 97.296 210.206 96.816C211.838 94.896 213.278 92.784 214.526 90.48C215.102 89.424 215.87 88.032 216.83 86.304C217.79 84.48 218.75 82.704 219.71 80.976C220.766 78.96 221.918 76.8 223.166 74.496L226.19 75.936ZM255.427 66.432C258.019 66.816 259.843 68.016 260.899 70.032C262.051 72.048 262.531 74.592 262.339 77.664C262.147 80.736 261.331 84.144 259.891 87.888C258.451 91.536 256.531 95.232 254.131 98.976C251.731 102.624 248.851 106.08 245.491 109.344C242.227 112.512 238.627 115.152 234.691 117.264C234.499 122.352 234.355 127.248 234.259 131.952C234.163 136.752 234.163 141.024 234.259 144.768C234.451 148.512 234.739 151.584 235.123 153.984C235.507 156.48 236.083 157.968 236.851 158.448C236.179 160.752 235.267 162.576 234.115 163.92C233.059 165.36 231.859 166.416 230.515 167.088C229.267 167.856 227.971 168.336 226.627 168.528C225.283 168.816 224.083 168.96 223.027 168.96C220.147 169.056 217.891 167.664 216.259 164.784C214.627 161.904 213.379 158.064 212.515 153.264C211.747 148.464 211.315 142.944 211.219 136.704C211.219 130.464 211.363 123.984 211.651 117.264C211.939 110.544 212.323 103.872 212.803 97.248C213.379 90.528 213.859 84.336 214.243 78.672C214.627 73.008 214.867 68.112 214.963 63.984C215.155 59.856 215.059 56.976 214.675 55.344C219.187 54.576 223.171 54.672 226.627 55.632C228.067 56.016 229.459 56.64 230.803 57.504C232.243 58.272 233.443 59.376 234.403 60.816C235.459 62.256 236.227 64.032 236.707 66.144C237.283 68.16 237.475 70.656 237.283 73.632C237.187 74.88 237.091 76.272 236.995 77.808C236.899 79.248 236.803 80.784 236.707 82.416C237.763 80.208 238.915 78.096 240.163 76.08C241.507 73.968 242.947 72.192 244.483 70.752C246.019 69.216 247.699 68.064 249.523 67.296C251.347 66.432 253.315 66.144 255.427 66.432ZM234.979 109.632V109.92C237.379 108.288 239.635 106.224 241.747 103.728C243.859 101.232 245.683 98.592 247.219 95.808C248.851 92.928 250.195 90.096 251.251 87.312C252.307 84.432 253.027 81.84 253.411 79.536C253.795 77.232 253.795 75.36 253.411 73.92C253.027 72.384 252.211 71.568 250.963 71.472C249.907 71.376 248.851 71.856 247.795 72.912C246.739 73.968 245.731 75.408 244.771 77.232C243.811 79.056 242.899 81.12 242.035 83.424C241.171 85.728 240.403 88.08 239.731 90.48C238.003 96.144 236.467 102.576 235.123 109.776L234.979 109.632ZM330.612 78.384C326.58 85.968 321.972 92.592 316.788 98.256C311.7 103.92 306.516 108.528 301.236 112.08C295.956 115.632 290.868 118.032 285.972 119.28C281.172 120.432 277.044 120.336 273.588 118.992C270.132 117.552 267.54 114.768 265.812 110.64C264.18 106.512 263.988 100.848 265.236 93.648C266.292 87.216 268.356 82.176 271.428 78.528C274.596 74.88 278.004 72.24 281.652 70.608C285.396 68.976 288.996 68.112 292.452 68.016C296.004 67.92 298.692 68.16 300.516 68.736C301.956 69.216 303.3 70.032 304.548 71.184C305.796 72.24 306.708 73.584 307.284 75.216C307.956 76.848 308.148 78.72 307.86 80.832C307.572 82.944 306.66 85.296 305.124 87.888C304.068 89.616 302.724 91.008 301.092 92.064C299.46 93.12 297.78 93.936 296.052 94.512C294.324 94.992 292.596 95.328 290.868 95.52C289.14 95.616 287.652 95.664 286.404 95.664C285.924 99.984 286.068 103.152 286.836 105.168C287.604 107.184 288.804 108.384 290.436 108.768C292.164 109.056 294.18 108.624 296.484 107.472C298.788 106.32 301.188 104.784 303.684 102.864C306.276 100.848 308.868 98.592 311.46 96.096C314.052 93.504 316.452 90.96 318.66 88.464C320.868 85.872 322.74 83.52 324.276 81.408C325.908 79.2 327.06 77.424 327.732 76.08L330.612 78.384ZM297.924 76.656C297.444 76.656 296.724 76.704 295.764 76.8C294.9 76.896 293.892 77.424 292.74 78.384C291.684 79.248 290.628 80.736 289.572 82.848C288.516 84.96 287.652 88.032 286.98 92.064C289.284 92.256 291.252 92.16 292.884 91.776C294.612 91.296 296.004 90.72 297.06 90.048C298.212 89.28 299.124 88.464 299.796 87.6C300.468 86.736 300.996 85.92 301.38 85.152C301.668 84.672 301.908 83.952 302.1 82.992C302.292 82.032 302.292 81.12 302.1 80.256C302.004 79.296 301.62 78.48 300.948 77.808C300.372 77.04 299.364 76.656 297.924 76.656Z" fill="white"/>
</svg>
